<svg id="Layer_1" data-name="Layer 1" xmlns="http://www.w3.org/2000/svg" viewBox="0 0 250 214.6"><title>Edit</title><path d="M162.92,145.3V28.46A10.76,10.76,0,0,0,152.16,17.7H10.76A10.75,10.75,0,0,0,0,28.46v141.4a10.75,10.75,0,0,0,10.76,10.76H128.67ZM28.34,48.81H134.56a6.82,6.82,0,1,1,0,13.64H28.34a6.82,6.82,0,1,1,0-13.64Zm0,31.27H134.56a6.83,6.83,0,0,1,0,13.66H28.34a6.83,6.83,0,0,1,0-13.66Zm-6.82,38.11a6.84,6.84,0,0,1,6.82-6.82H134.56a6.82,6.82,0,1,1,0,13.64H28.34A6.84,6.84,0,0,1,21.52,118.19Z" transform="translate(0 -17.7)"/><path d="M244,99.28a19.64,19.64,0,0,0-27.78.42L209,107.15l28.21,27.35,7.22-7.44A19.65,19.65,0,0,0,244,99.28Z" transform="translate(0 -17.7)"/><polygon points="212.98 107.72 201.81 96.89 162.92 137 162.92 137 137.79 162.92 137.79 162.92 124.64 176.49 119.84 195.54 115.04 214.6 133.95 209.22 152.85 203.84 230.03 124.25 218.86 113.42 212.98 107.72"/></svg>