<?xml version="1.0" encoding="utf-8"?>
<!-- Generator: Adobe Illustrator 16.0.0, SVG Export Plug-In . SVG Version: 6.00 Build 0)  -->
<!DOCTYPE svg PUBLIC "-//W3C//DTD SVG 1.1//EN" "http://www.w3.org/Graphics/SVG/1.1/DTD/svg11.dtd">
<svg version="1.1" id="Layer_1" xmlns="http://www.w3.org/2000/svg" xmlns:xlink="http://www.w3.org/1999/xlink" x="0px" y="0px"
	 width="1024px" height="1024px" viewBox="0 0 1024 1024" enable-background="new 0 0 1024 1024" xml:space="preserve">
<rect fill="none" width="1024" height="1024"/>
<g>
	<path fill-rule="evenodd" clip-rule="evenodd" d="M913,208c0-32,0-48,0-81c-76,0-153.484,0-233.255,0
		c3.917-47-1.736-111.197-62.366-127C554.761,0,492.158,0,429.54,0c-59.369,15.803-66.966,64-62.113,127
		C288.456,127,214,127,138,127c0,33,0,49,0,81c0,0,15,0,30,0c0,16,0,21.385,0,29.842c0,201.328,0,402.687,0,604.03
		C168,931.568,192.526,960,270.933,992c1.335,0,2.671,0,4.006,0c0.742,16,12.464,32,26.917,32h108.261c14.453,0,26.175-16,26.917-32
		c57.395,0,114.79,0,172.185,0c0.742,16,12.465,32,26.917,32h108.261c14.453,0,26.175-16,26.917-32c1.573,0,3.116,0,4.689,0
		c22.139-16,46.948-21.211,65.778-38.078c26.056-23.323,37.651-56.924,37.622-92.816C879.283,653.98,883,447.33,883,240.188
		c0-8.691,0-16.188,0-32.188C883,208,898,208,913,208z M442,96c61,0,106,0,152,0c0,0,0,16,0,31c-46,0-91,0-152,0
		C442,112,442,96,442,96z M791,235.888c0,206.502,3.125,413.003,3.096,619.521c0,44.38-9.292,55.916-51.195,55.933
		c-147.36,0.031-296.948,0.046-444.309-0.017c-41.918,0-54.592-11.271-54.592-56.057c0-205.782,0-411.549,0-617.332
		c0-7.941,0-13.937,0-29.937c183,0,365,0,547,0C791,224,791,228.15,791,235.888z"/>
	<path fill-rule="evenodd" clip-rule="evenodd" d="M563,336c-30,0-45,0-75,0c0,144,0,304,0,448c30,0,45,0,75,0
		C563,640,563,480,563,336z"/>
	<path fill-rule="evenodd" clip-rule="evenodd" d="M396,336c-15,0-45,0-60,0c0,144,0,304,0,448c15,0,45,0,60,0
		C396,640,396,480,396,336z"/>
	<path fill-rule="evenodd" clip-rule="evenodd" d="M715,336c-30,0-45,0-76,0c0,144,0,304,0,448c31,0,46,0,76,0
		C715,640,715,480,715,336z"/>
</g>
</svg>
